<?xml version="1.0" encoding="UTF-8" standalone="no"?>
<!-- Created with Inkscape (http://www.inkscape.org/) -->

<svg
   width="210mm"
   height="297mm"
   viewBox="0 0 210 297"
   version="1.1"
   id="svg2159"
   inkscape:version="1.2.2 (732a01da63, 2022-12-09)"
   sodipodi:docname="drawing3.svg"
   xmlns:inkscape="http://www.inkscape.org/namespaces/inkscape"
   xmlns:sodipodi="http://sodipodi.sourceforge.net/DTD/sodipodi-0.dtd"
   xmlns="http://www.w3.org/2000/svg"
   xmlns:svg="http://www.w3.org/2000/svg">
  <sodipodi:namedview
     id="namedview2161"
     pagecolor="#ffffff"
     bordercolor="#000000"
     borderopacity="0.25"
     inkscape:showpageshadow="2"
     inkscape:pageopacity="0.0"
     inkscape:pagecheckerboard="0"
     inkscape:deskcolor="#d1d1d1"
     inkscape:document-units="mm"
     showgrid="false"
     inkscape:zoom="0.71624579"
     inkscape:cx="396.51193"
     inkscape:cy="421.64297"
     inkscape:window-width="1450"
     inkscape:window-height="1020"
     inkscape:window-x="224"
     inkscape:window-y="0"
     inkscape:window-maximized="0"
     inkscape:current-layer="layer1" />
  <defs
     id="defs2156">
    <rect
       x="293.75546"
       y="464.94882"
       width="29.797203"
       height="17.990765"
       id="rect56857-3" />
    <rect
       x="293.75546"
       y="464.94882"
       width="29.797203"
       height="17.990765"
       id="rect56857-3-2" />
  </defs>
  <g
     inkscape:label="Layer 1"
     inkscape:groupmode="layer"
     id="layer1">
    <g
       id="g62974"
       transform="matrix(3.6768811,0,0,5.2759997,-54.751374,-434.93347)">
      <rect
         style="fill:#ffff00;stroke:#000000;stroke-width:0.536527;stroke-opacity:1"
         id="rect2981-7-6-0"
         width="39.463474"
         height="39.463474"
         x="89.238251"
         y="27.811153"
         transform="rotate(45)" />
      <rect
         style="fill:#000000;stroke:#000000;stroke-width:0.446513;stroke-opacity:1"
         id="rect2981-3-0-7-7"
         width="32.842663"
         height="32.842663"
         x="92.558846"
         y="31.295076"
         transform="matrix(0.7076093,0.70660391,-0.7076093,0.70660391,0,0)" />
      <g
         id="g62960">
        <ellipse
           style="fill:#ffff00;stroke:#ffff00;stroke-width:0;stroke-dasharray:none"
           id="path57982-7-9"
           cx="51.692253"
           cy="115.0909"
           rx="2.7109156"
           ry="1.6326621"
           transform="matrix(1,0,-0.03224129,0.99948011,0,0)" />
        <ellipse
           style="fill:#ffff00;stroke:#ffff00;stroke-width:0;stroke-dasharray:none"
           id="path57982-7-6"
           cx="50.143639"
           cy="117.67157"
           rx="2.7109156"
           ry="1.6326621"
           transform="matrix(1,0,-0.03224129,0.99948011,0,0)" />
        <ellipse
           style="fill:#ffff00;stroke:#ffff00;stroke-width:0;stroke-dasharray:none"
           id="path57982-7"
           cx="52.119301"
           cy="112.00991"
           rx="2.7109156"
           ry="1.6326621"
           transform="matrix(1,0,-0.03224129,0.99948011,0,0)" />
        <rect
           style="fill:#ffff00;stroke:#ffff00;stroke-width:0;stroke-dasharray:none"
           id="rect57970"
           width="3.5794613"
           height="10.633106"
           x="32.874142"
           y="107.6616" />
        <path
           style="fill:#ffff00;stroke:#ffff00;stroke-width:0;stroke-dasharray:none"
           d="m 36.979993,108.92493 -0.05264,8.05379 2.4214,0.42111 2.895151,1.4739 1.368618,0.31583 -0.05264,-13.15978 -2.105566,0.63166 -1.000144,1.26334 -1.84237,0.89487 z"
           id="path57972"
           sodipodi:nodetypes="cccccccccc" />
        <path
           style="fill:#ffff00;stroke:#ffff00;stroke-width:0;stroke-dasharray:none"
           d="m 43.086132,106.904 -1.684451,-6.72031 2.4214,-0.997544 2.947792,-0.210016 2.947792,0.315017 1.368617,0.787533 -4.474328,18.95337 -3.105708,0.15751 z"
           id="path57974"
           sodipodi:nodetypes="ccccccccc" />
        <path
           style="fill:#000000;stroke:#ffff00;stroke-width:0;stroke-dasharray:none"
           d="m 43.980998,106.45646 -0.473752,-2.49432 -0.789588,-1.97664 0.473753,-0.3765 1.052784,-0.23532 0.263194,-1.08246 1.842371,-0.14118 1.315978,0.0941 0.315835,1.08244 0.842226,0.28238 0.63167,0.42357 -0.315836,0.80006 -0.315835,1.36482 -0.315834,2.30608 z"
           id="path57978"
           sodipodi:nodetypes="ccccccccccccccc" />
        <ellipse
           style="fill:#ffff00;stroke:#ffff00;stroke-width:0;stroke-dasharray:none"
           id="path57980"
           cx="46.323441"
           cy="104.34531"
           rx="1.9213285"
           ry="0.89486521" />
        <ellipse
           style="fill:#ffff00;stroke:#ffff00;stroke-width:0;stroke-dasharray:none"
           id="path57982"
           cx="52.355286"
           cy="108.96563"
           rx="2.7109156"
           ry="1.5011386"
           transform="matrix(1,0,-0.03506613,0.99938499,0,0)" />
      </g>
    </g>
  </g>
</svg>
