<?xml version="1.0" standalone="no"?>
<!DOCTYPE svg PUBLIC "-//W3C//DTD SVG 20010904//EN"
 "http://www.w3.org/TR/2001/REC-SVG-20010904/DTD/svg10.dtd">
<svg version="1.0" xmlns="http://www.w3.org/2000/svg"
 width="183.000000pt" height="183.000000pt" viewBox="0 0 183.000000 183.000000"
 preserveAspectRatio="xMidYMid meet">

<g transform="translate(0.000000,183.000000) scale(0.100000,-0.100000)"
fill="black" stroke="none" >
<path  d="M457 1372 l-457 -457 458 -458 457 -457 458 458 457 457 -458 458
-457 457 -458 -458z m901 -15 l442 -442 -443 -443 -442 -442 -445 445 -445
445 440 440 c242 242 442 440 445 440 3 0 204 -199 448 -443z" style="s"/>
<path d="M527 1292 l-377 -377 380 -380 380 -380 380 380 380 380 -377 377
c-208 208 -380 378 -383 378 -3 0 -175 -170 -383 -378z m510 -45 c12 -63 16
-71 66 -117 35 -32 62 -68 77 -102 12 -29 29 -57 36 -61 18 -11 19 -93 1 -104
-8 -4 -25 -33 -39 -63 -23 -50 -63 -99 -111 -132 -10 -8 -22 -39 -30 -83 l-12
-70 -112 0 c-61 0 -114 3 -117 6 -4 3 -11 35 -18 70 -10 57 -16 69 -60 111
-66 65 -92 124 -92 213 0 87 28 151 95 215 34 33 48 55 53 85 17 101 12 94 74
98 31 2 84 3 117 3 l60 -1 12 -68z"/>
<path d="M848 1283 c-29 -3 -38 -9 -38 -22 0 -10 -3 -33 -6 -50 l-6 -31 32 11
c18 7 65 10 109 7 l78 -5 -8 41 c-5 23 -8 44 -9 49 0 7 -82 7 -152 0z"/>
<path d="M814 1137 c-115 -55 -169 -176 -132 -301 16 -55 99 -138 154 -154
119 -35 239 15 297 123 28 53 30 164 3 215 -63 120 -206 172 -322 117z m114
-8 c-2 -6 -8 -10 -13 -10 -5 0 -11 4 -13 10 -2 6 4 11 13 11 9 0 15 -5 13 -11z
m97 -39 c-5 -8 -11 -8 -17 -2 -6 6 -7 16 -3 22 5 8 11 8 17 2 6 -6 7 -16 3
-22z m-210 11 c7 -12 -12 -24 -25 -16 -11 7 -4 25 10 25 5 0 11 -4 15 -9z
m293 -79 c2 -7 -3 -12 -12 -12 -9 0 -16 7 -16 16 0 17 22 14 28 -4z m-360 -10
c2 -7 -3 -12 -12 -12 -9 0 -16 7 -16 16 0 17 22 14 28 -4z m223 -34 c-17 -29
-35 -59 -40 -67 -7 -12 -18 -9 -57 18 -38 25 -43 31 -22 27 14 -3 32 -8 40
-11 8 -3 33 14 58 40 24 25 46 45 48 45 2 0 -10 -24 -27 -52z m-253 -56 c2 -7
-3 -12 -12 -12 -9 0 -16 7 -16 16 0 17 22 14 28 -4z m422 3 c0 -8 -7 -15 -15
-15 -8 0 -15 7 -15 15 0 8 7 15 15 15 8 0 15 -7 15 -15z m-35 -104 c7 -12 -12
-24 -25 -16 -11 7 -4 25 10 25 5 0 11 -4 15 -9z m-357 -13 c-6 -18 -28 -21
-28 -4 0 9 7 16 16 16 9 0 14 -5 12 -12z m77 -78 c-5 -8 -11 -8 -17 -2 -6 6
-7 16 -3 22 5 8 11 8 17 2 6 -6 7 -16 3 -22z m200 0 c-5 -8 -11 -8 -17 -2 -6
6 -7 16 -3 22 5 8 11 8 17 2 6 -6 7 -16 3 -22z m-97 -22 c-6 -18 -28 -21 -28
-4 0 9 7 16 16 16 9 0 14 -5 12 -12z"/>
<path d="M805 603 c11 -65 7 -63 105 -63 49 0 90 3 90 8 1 4 5 26 9 50 l8 42
-36 -7 c-46 -10 -85 -10 -139 0 l-43 7 6 -37z"/>
</g>
</svg>
