<?xml version="1.0" encoding="UTF-8" standalone="no"?>
<svg
   width="1920"
   height="1080"
   version="1.1"
   id="svg11160"
   sodipodi:docname="logo_TaxiFy_officiel_large.svg"
   inkscape:version="1.2.2 (732a01da63, 2022-12-09)"
   xmlns:inkscape="http://www.inkscape.org/namespaces/inkscape"
   xmlns:sodipodi="http://sodipodi.sourceforge.net/DTD/sodipodi-0.dtd"
   xmlns="http://www.w3.org/2000/svg"
   xmlns:svg="http://www.w3.org/2000/svg">
  <defs
     id="defs11164" />
  <sodipodi:namedview
     id="namedview11162"
     pagecolor="#ffffff"
     bordercolor="#000000"
     borderopacity="0.25"
     inkscape:showpageshadow="2"
     inkscape:pageopacity="0.0"
     inkscape:pagecheckerboard="0"
     inkscape:deskcolor="#d1d1d1"
     showgrid="false"
     showguides="true"
     inkscape:zoom="0.18610574"
     inkscape:cx="803.30678"
     inkscape:cy="488.96935"
     inkscape:window-width="1280"
     inkscape:window-height="745"
     inkscape:window-x="-8"
     inkscape:window-y="-8"
     inkscape:window-maximized="1"
     inkscape:current-layer="svg11160" />
  <g
     id="g12995">
    <path
       style="fill:#000000;stroke:none"
       d="M 5.187531,2.3354464 V 1082.3356 H 1925.1875 V 2.3354464 Z"
       id="path5892" />
    <path
       style="fill:#fae232;stroke:none"
       d="m 1031.3459,369.97184 c -21.477,3.872 -32.36398,28.449 -22.084,47.535 6.81,12.644 22.26,18.877 36.084,16.384 24.988,-4.505 37.129,-37.327 18.535,-55.919 -8.329,-8.329 -21.303,-10.026 -32.535,-8 z"
       id="path6304" />
    <path
       style="fill:#a9a9a9;stroke:none"
       d="m 1230.3459,546.50684 h 42 c 9.93,0 20.86,0.113 28.91,6.823 14.45,12.046 15.06,32.085 17.52,49.177 0.49,3.44 2.1,15.094 8.26,11.863 2.31,-1.215 2.52,-4.583 2.6,-6.863 0.22,-6.948 -0.29,-14.031 -0.29,-21 0,-11.715 -1.02,-23.277 -1,-35 0.03,-17.606 1,-35.319 1,-53 0,-7.999 0.05,-16.001 0,-24 -0.02,-2.533 0.39,-7.103 -3.09,-7.534 -5.55,-0.686 -5.45,10.057 -6.11,13.534 -2.77,14.738 -4.27,33.418 -14.99,44.957 -5.74,6.185 -13.85,8.149 -21.81,9.832 -17.27,3.651 -35.45,2.211 -53,2.211 v -154 c 23.73,0 47.26,-1.829 71,-0.089 17.97,1.318 34.91,4.515 49,16.528 14.69,12.529 21.59,31.403 26.13,49.561 0.88,3.526 2.44,15.738 8.57,13.338 2.14,-0.839 2.21,-3.404 2.11,-5.343 -0.28,-5.31 -1.47,-10.731 -2.23,-15.995 -3.23,-22.32 -5.58,-45.46 -5.58,-68 -7.02,0 -14.04,0.921 -21,0.921 -28.96,0 -57.95,-1.968 -87,-1.921 -28.58,0.046 -57.33,1 -86,1 -16.38,0 -32.67,1 -49,1 -4.672,0 -14.774,-1.868 -18.377,1.727 -4.342,4.332 4.895,5.842 7.377,6.103 8.058,0.849 19.63,0.436 25.87,6.395 7.75,7.4 4.13,25.926 4.13,35.775 v 240 c 0,14.4 4.62,36.834 -12,43.522 -5.528,2.223 -11.212,2.076 -17,2.764 -2.961,0.351 -17.562,1.062 -13.762,7.216 1.729,2.8 6.013,2.397 8.762,2.07 7.552,-0.899 15.391,-1.569 23,-1.572 32.67,-0.013 65.4,1 98,1 8.94,0 18.13,1.578 27,0.91 2.77,-0.209 8.36,-0.914 8.36,-4.74 0,-4.834 -10.36,-4.165 -13.36,-4.17 -11.22,-0.018 -27.63,1.145 -31.94,-12 -5.06,-15.405 -2.06,-34.972 -2.06,-51 z"
       id="path6346" />
    <path
       style="fill:#fae232;stroke:none"
       d="m 224.34592,374.50684 c 0,13.994 -1.5004,28.082 -2.8302,42 -1.0791,11.293 -1.1169,22.749 -2.5942,34 -0.714,5.438 -1.9024,12.555 -1.2577,17.981 0.2806,2.361 1.8155,4.875 4.5378,4.553 4.8298,-0.572 6.315,-9.798 7.1296,-13.534 3.2943,-15.108 4.9833,-30.318 12.8907,-44 16.451,-28.466 54.397,-32.757 84.124,-29 v 207 c 0,34.444 2.106,69.63 -0.044,104 -0.976,15.594 -24.51,15.946 -35.956,16.001 -2.637,0.012 -13.789,-0.349 -12.11,4.754 0.877,2.664 4.791,3.031 7.111,2.985 8.308,-0.165 16.649,-0.645 24.999,-0.744 13.298,-0.158 26.705,-1.656 40,-1.981 20.731,-0.508 41.325,0.985 62,0.985 8.988,0 18.05,0.771 27,1.536 3.02,0.258 7.873,0.119 8.623,-3.665 1.413,-7.12 -10.442,-6.073 -14.623,-6.586 -12.479,-1.533 -30.557,-1.913 -31.907,-18.285 -0.922,-11.188 -0.093,-22.774 -0.093,-34 v -68 -204 c 28.769,-2.271 63.421,-3.409 81.958,23 10.015,14.269 13.568,31.54 18.197,48 0.916,3.258 3.483,13.524 8.567,12.168 2.469,-0.658 2.256,-4.213 2.27,-6.169 0.039,-5.644 -1.02,-11.404 -1.707,-16.999 -2.907,-23.656 -6.269,-48.171 -6.285,-72 -47.3,0 -94.645,2.076 -142,2 -45.951,-0.074 -91.948,-2 -138,-2 z"
       id="path6384" />
    <g
       id="g12971"
       transform="translate(90.39605,-21.16721)">
      <circle
         style="fill:#fae232;fill-opacity:1;stroke:#050500;stroke-width:0;stroke-dasharray:none"
         id="path11335"
         cx="1565.8646"
         cy="413.19446"
         r="91.160881" />
      <path
         style="fill:#000000;stroke:none"
         d="m 1597,342 c -3.87,7.023 -11.06,1.096 -16.3,5.028 -2.45,1.837 -3.12,6.234 -4.03,8.972 -2.29,6.865 -7.7,13.115 -9.13,20 -1.28,6.242 3.03,10.302 4.18,16 0.6,2.983 -0.37,6.877 2.02,9.258 6.72,6.692 10.22,-4.47 10.26,-9.258 h 40 c 0.1,4.74 3.6,15.892 10.26,9.258 2.4,-2.393 1.38,-6.271 2.04,-9.258 1.26,-5.711 5.35,-9.7 4.21,-16 -1.27,-7 -6.88,-13.134 -9.18,-20 -0.91,-2.739 -1.58,-7.134 -4.03,-8.972 -5.24,-3.932 -12.43,1.995 -16.3,-5.028 z"
         id="path5986" />
      <path
         style="fill:#fae232;stroke:none"
         d="m 1585,350 c -1.23,5.362 -3.2,10.552 -4,16 h 46 c -0.74,-5.502 -2.75,-10.616 -4,-16 z"
         id="path6022" />
      <path
         style="fill:#fae232;stroke:none"
         d="m 1578.32,372.047 c -4.33,2.706 0.01,9.345 4.37,6.73 4.48,-2.689 0.02,-9.471 -4.37,-6.73 z"
         id="path6146" />
      <path
         style="fill:#fae232;stroke:none"
         d="m 1625.32,372.047 c -4.26,2.664 -0.04,9.388 4.25,6.73 4.42,-2.738 0.18,-9.498 -4.25,-6.73 z"
         id="path6152" />
      <path
         style="fill:#000000;stroke:none;stroke-width:0.985206"
         d="m 1481.9499,378.42481 0.9829,14.81252 c 57.8348,1.19883 108.0519,40.00468 119.9157,97.76267 l 15.7267,-2.96251 c -3.912,-15.16703 -8.1189,-29.84921 -16.169,-43.45007 -25.8703,-43.68707 -70.8092,-66.16261 -120.4563,-66.16261 z"
         id="path6194" />
      <path
         style="fill:#a69621;stroke:none"
         d="m 1640,383 1,1 z"
         id="path6252" />
      <path
         style="fill:#000000;stroke:none"
         d="m 1483,409 1,16 c 30.08,0.249 58.92,15.644 75.3,41 6.14,9.505 8.78,19.618 12.7,30 4.98,-0.939 9.92,-1.895 15,-2 -0.42,-9.642 -4.48,-19.448 -8.76,-28 -18.52,-37.031 -55.21,-55.281 -95.24,-57 z"
         id="path6628" />
      <path
         style="fill:#000000;stroke:none"
         d="m 1485,441 c 0.03,3.638 -0.43,10.293 2.02,13.258 2.41,2.902 10.43,2.633 13.98,3.652 8.13,2.329 15.77,6.45 22,12.183 5.34,4.919 10.08,10.478 13.51,16.907 1.81,3.395 2.6,8.655 5.33,11.396 3.09,3.099 10.55,0.7 14.16,-0.396 -6.95,-33.583 -37.03,-56.719 -71,-57 z"
         id="path7052" />
    </g>
    <path
       style="fill:#fae232;stroke:none"
       d="m 637.34592,602.50684 c -17.201,0.142 -35.757,4.581 -52,10 -12.394,4.135 -25.07,9.458 -35,18.184 -21.917,19.26 -30.256,57.981 -7.711,80.527 19.511,19.51 54.414,15.587 74.711,-0.38 8.728,-6.866 16.293,-16.263 21,-26.331 3.397,9.069 3.485,18.654 9.105,26.996 9.703,14.403 31.735,13.772 46.895,11.576 13.69,-1.983 26.334,-7.663 36.999,-16.496 5.086,-4.211 10.722,-8.949 9.001,-16.076 -9.079,3.086 -17.072,16.988 -28,14.387 -5.837,-1.389 -9.26,-7.092 -10.971,-12.387 -3.545,-10.976 -3.95,-25.598 -2.453,-37 1.497,-11.401 0.424,-23.508 0.424,-35 0,-19.022 0.387,-38.051 -0.911,-57 -1.105,-16.141 -2.166,-33.071 -13.415,-45.961 -8.298,-9.508 -21.727,-13.98 -33.674,-16.615 -28.58,-6.301 -64.139,-7.398 -90,8.029 -19.401,11.573 -37.837,37.81 -24.637,60.547 9.709,16.721 40.244,21.791 50.732,2.996 5.186,-9.293 5.411,-25.585 -4.138,-32.293 -7.502,-5.27 -26.854,-1.851 -20.424,-16.703 11.516,-26.599 52.476,-28.043 66.988,-4 5.827,9.655 5.827,21.165 6.569,32 1.162,16.969 0.91,33.963 0.91,51 z"
       id="path7884" />
    <path
       style="fill:#fae232;stroke:none"
       d="m 957.34592,508.50684 v -5 c -19.235,-1.516 -39.612,-0.395 -59,-0.014 -4.527,0.089 -9.471,-0.603 -13.941,0.162 -1.485,0.254 -3.467,0.931 -3.138,2.852 0.523,3.051 4.793,2.952 7.079,2.995 5.717,0.108 22.298,-2.044 20.489,8.009 -1.124,6.248 -6.427,12.778 -9.833,17.996 -6.432,9.854 -13.236,19.43 -20.077,29 -3.676,5.142 -8.113,10.168 -10.579,16 h -2 c -2.686,-7.098 -7.584,-13.558 -11.576,-20 -5.643,-9.109 -10.89,-18.413 -15.671,-28 -2.254,-4.519 -8.142,-13.733 -4.146,-18.581 5.559,-6.744 18.36,-2.777 25.393,-7.419 -6.295,-6.503 -19.643,-4 -28,-4 h -75 c -6.08,0 -11.961,0.696 -18,0.961 -4.935,0.216 -9.336,-0.792 -12,4.039 9.166,4.412 20.526,0.869 28.91,7.558 8.538,6.812 14.058,19.117 19.371,28.442 9.671,16.973 19.185,34.033 28.869,51 3.425,5.999 6.803,12.028 10.275,18 1.526,2.624 4.236,5.756 3.596,9 -1.318,6.678 -9.134,14.64 -13.148,20 -10.665,14.243 -21.055,28.676 -31.608,43 -8.023,10.891 -16.577,23.255 -30.265,26.844 -5.034,1.32 -9.955,0.485 -14.98,1.304 -1.644,0.268 -3.714,0.906 -3.983,2.852 -0.318,2.302 2.335,2.786 4.007,2.941 4.254,0.396 8.684,0.059 12.956,0.059 16.715,0 33.351,0.577 50,0.985 2.717,0.067 15.7,1.375 14.824,-3.815 -0.545,-3.231 -6.48,-3.097 -8.824,-3.155 -6.209,-0.155 -12.869,0.765 -19,-0.344 -2.388,-0.433 -5.67,-1.371 -6.643,-3.896 -2.189,-5.679 8.401,-15.37 11.207,-19.775 12.714,-19.957 25.932,-41.08 41.436,-59 3.08,8.412 8.831,16.295 13.397,24 6.582,11.108 12.601,22.518 18.495,34 2.375,4.626 10.367,16.55 6.464,21.581 -2.304,2.971 -6.922,3.315 -10.356,3.404 -6.888,0.181 -13.375,-0.228 -20,2.015 2.514,6.315 10.251,5 16,5 h 44 c 53.722,0 107.28,1 160.99998,1 h 39 c 3.671,0 11.444,1.408 14.149,-1.727 2.997,-3.472 -2.787,-5.079 -5.153,-5.229 -11.218,-0.712 -25.924,2.061 -27.811,-13.044 -0.491,-3.933 -0.185,-8.043 -0.185,-12 v -117 c 0,-24.695 1.522,-50.645 -3,-75 -6.798,1.573 -13.254,4.334 -20,6.116 -18.748,4.952 -38.547,8.877 -57.99998,8.884 -5.566,0.002 -11.526,-0.583 -16.995,0.634 -2.012,0.448 -5.531,1.421 -5.084,4.196 0.587,3.639 6.491,3.156 9.079,3.169 7.109,0.038 18.352,-1.513 23.14298,5.215 2.808,3.943 2.834,10.151 2.856,14.786 0.042,8.666 10e-4,17.334 10e-4,26 v 105 c 0,10.183 0.931,20.875 -0.174,31 -0.568,5.208 -2.577,9.705 -7.82998,11.467 -9.169,3.074 -19.035,1.889 -28.035,0.011 -8.445,-1.762 -16.089,-0.206 -23.961,-4.957 -8.805,-5.314 -14.443,-14.926 -19.6,-23.521 -9.811,-16.352 -18.35,-33.444 -27.821,-50 -5.899,-10.31 -11.552,-20.757 -17.568,-31 -2.235,-3.805 -6.883,-9.395 -6.671,-14 0.166,-3.606 3.408,-7.177 5.38,-10 4.41,-6.312 8.673,-12.728 13.139,-19 7.752,-10.887 14.798,-22.263 22.771,-33 4.417,-5.949 8.468,-12.39 15.37,-15.672 8.344,-3.967 18.103,-1.676 27,-3.328 z"
       id="path7896" />
    <path
       style="fill:#a9a9a9;stroke:none"
       d="m 1613.3459,503.50684 c -19.4,-2.292 -39.36,2.699 -59,0.83 -4.18,-0.398 -17.44,-3.458 -19.82,1.469 -2.32,4.771 6.2,5.537 8.82,5.856 7.38,0.899 26.33,-2.086 25.23,9.845 -1.03,11.04 -6.08,22.553 -9.56,33 -7.07,21.214 -15.15,42.103 -23.09,63 -4.25,11.15 -9.83,22.381 -12.58,34 h -2 c -3.3,-11.55 -9.13,-22.825 -13.6,-34 -8.2,-20.486 -15.7,-41.218 -23.09,-62 -3.76,-10.567 -8.55,-21.144 -11.39,-32 -3.94,-15.083 12.04,-13.407 22.08,-14.044 1.89,-0.12 8.46,-1.875 5.15,-4.944 -1.69,-1.559 -5.07,-0.954 -7.15,-1.101 -6.72,-0.475 -13.24,-0.911 -20,-0.911 -24.72,0 -49.31,1 -74,1 -7.53,0 -15.58,-1.554 -23,-0.829 -2.07,0.203 -7.4,0.634 -6.96,3.828 0.59,4.337 9.94,3.024 12.96,3.425 11.12,1.479 17.09,4.127 22.4,14.576 6.53,12.875 11.44,26.696 17.02,40 15.17,36.147 29.43,72.603 43.98,109 5.75,14.385 11.54,28.745 17.6,43 2.35,5.519 7.57,12.992 7.75,19 0.2,6.252 -4.15,14.222 -6.33,20 -5.81,15.421 -10.95,32.07 -19.97,46 -3.8,5.871 -10.53,14.536 -18.45,13.743 -7.85,-0.787 -10.52,-9.071 -14.24,-14.742 -3.61,-5.501 -8.25,-8.587 -14.76,-9.557 -22.93,-3.422 -34.5,17.608 -27.05,37.556 7.42,19.852 33.22,25.482 51.05,16.623 11.16,-5.544 19.18,-15.959 25.14,-26.623 14.65,-26.212 23.72,-55.99 34.28,-84 21.67,-57.432 41.35,-115.573 63,-173 3.88,-10.269 7.76,-20.591 11.25,-31 1.74,-5.224 3,-12.508 6.97,-16.566 7.93,-8.101 30.9,3.622 31.36,-10.434 z"
       id="path7978" />
    <path
       style="fill:#000000;stroke:none"
       d="m 637.34592,609.50684 c -31.102,4.188 -51.702,29.571 -47.424,61 0.968,7.108 1.615,14.348 6.638,19.957 8.6,9.602 25.284,9.145 32.318,-1.972 7.003,-11.067 7.448,-27.275 7.468,-39.985 0.021,-12.963 1,-25.971 1,-39 z"
       id="path9376" />
  </g>
</svg>
